<svg width="24" height="24" viewBox="0 0 24 24" fill="none" xmlns="http://www.w3.org/2000/svg">
<path fill-rule="evenodd" clip-rule="evenodd" d="M9.19999 3.59999C6.10719 3.59999 3.59999 6.10719 3.59999 9.19999C3.59999 12.2928 6.10719 14.8 9.19999 14.8C12.2928 14.8 14.8 12.2928 14.8 9.19999C14.8 6.10719 12.2928 3.59999 9.19999 3.59999ZM0.799988 9.19999C0.799988 4.5608 4.5608 0.799988 9.19999 0.799988C13.8392 0.799988 17.6 4.5608 17.6 9.19999C17.6 11.0142 17.0249 12.694 16.047 14.0671L22.7899 20.81C23.3367 21.3568 23.3367 22.2432 22.7899 22.7899C22.2432 23.3367 21.3568 23.3367 20.81 22.7899L14.0671 16.047C12.694 17.0249 11.0142 17.6 9.19999 17.6C4.5608 17.6 0.799988 13.8392 0.799988 9.19999Z" fill="#9EA1B8"/>
</svg>
